<svg width="505" height="125" viewBox="0 0 505 125" fill="none" xmlns="http://www.w3.org/2000/svg">
<path d="M37.683 123.39V14.7227H0V0.701081H91.1404V14.7227H53.4573V123.39H37.683Z" fill="white"/>
<path d="M97.1995 124.091V110.07L119.108 109.193V14.898L97.1995 14.0216V0L126.995 1.40216L156.791 0V14.0216L134.883 14.898V109.193L156.791 110.07V124.091L126.995 122.689L97.1995 124.091Z" fill="white"/>
<path d="M169.882 123.39V0.701081H254.011V14.7227H185.656V53.2821H245.248V67.3037H185.656V109.368H255.764V123.39H169.882Z" fill="white"/>
<path d="M282.068 67.3037H343.413V14.7227H282.068V67.3037ZM359.187 14.7227V67.3037L347.444 79.0468L368.827 123.39H351.826L332.02 81.3253H282.068V123.39H266.294V0.701081H345.165L359.187 14.7227Z" fill="white"/>
<path d="M411.795 109.368V14.7227L425.817 0.701081H490.667L504.688 14.7227V109.368L490.667 123.39H425.817L411.795 109.368ZM427.57 14.7227V109.368H488.914V14.7227H427.57Z" fill="#B2ED1D"/>
</svg>
